<svg width="194" height="57" viewBox="0 0 194 57" fill="none" xmlns="http://www.w3.org/2000/svg">
<path d="M50.9229 36.753V38H43.7889V36.753L46.0219 36.26L52.9239 17.787L55.3309 17.7L61.8559 36.26L64.0889 36.753V38H56.5489V36.753L59.2169 36.231L57.9119 32.287H49.6469L48.1969 36.26L50.9229 36.753ZM50.1979 30.547H57.3899L53.9679 19.962L50.1979 30.547ZM69.351 22.688H72.251C74.107 22.688 75.5183 22.978 76.485 23.558C77.471 24.1187 77.964 25.0467 77.964 26.342C77.964 27.3667 77.6547 28.169 77.036 28.749C76.4173 29.3097 75.499 29.6963 74.281 29.909C75.6343 30.0443 76.6977 30.431 77.471 31.069C78.2637 31.6877 78.66 32.6157 78.66 33.853C78.66 35.245 78.1187 36.289 77.036 36.985C75.9727 37.6617 74.3003 38 72.019 38H64.769V36.753L67.031 36.26V24.486L64.769 24.022V22.775L69.351 22.688ZM71.787 24.283H69.351V29.358H71.062C72.7053 29.358 73.875 29.1357 74.571 28.691C75.2863 28.2463 75.644 27.5793 75.644 26.69C75.644 25.82 75.325 25.2013 74.687 24.834C74.049 24.4667 73.0823 24.283 71.787 24.283ZM71.758 36.376C73.324 36.376 74.455 36.1633 75.151 35.738C75.8663 35.3127 76.224 34.607 76.224 33.621C76.224 32.6737 75.905 31.9487 75.267 31.446C74.6483 30.9433 73.672 30.692 72.338 30.692H69.351V36.376H71.758ZM82.6409 38V36.753L85.3379 36.318V24.457H81.3939L80.9589 27.154H79.5089V22.688H93.4869V27.154H92.0369L91.6019 24.457H87.6579V36.289L90.4129 36.753V38H82.6409ZM101.816 22.427C103.923 22.427 105.586 23.094 106.804 24.428C108.022 25.762 108.631 27.647 108.631 30.083C108.631 31.7457 108.341 33.186 107.761 34.404C107.181 35.622 106.34 36.5693 105.238 37.246C104.155 37.9227 102.85 38.261 101.323 38.261C99.235 38.261 97.6014 37.6133 96.422 36.318C95.2427 35.0033 94.653 33.1183 94.653 30.663C94.653 28.981 94.9334 27.5213 95.494 26.284C96.074 25.0467 96.8957 24.0993 97.959 23.442C99.0417 22.7653 100.327 22.427 101.816 22.427ZM101.7 24.138C100.211 24.138 99.0707 24.6987 98.278 25.82C97.4854 26.9413 97.089 28.517 97.089 30.547C97.089 32.5383 97.466 34.0367 98.22 35.042C98.974 36.0473 100.057 36.55 101.468 36.55C103.015 36.55 104.184 35.9893 104.977 34.868C105.789 33.7467 106.195 32.1903 106.195 30.199C106.195 28.227 105.799 26.7287 105.006 25.704C104.233 24.66 103.131 24.138 101.7 24.138ZM110.754 44.67V43.423L113.016 42.901V24.515L110.754 24.022V22.775L114.814 22.572L115.075 24.718C116.776 23.1907 118.468 22.427 120.15 22.427C121.232 22.427 122.199 22.7267 123.05 23.326C123.92 23.906 124.606 24.7663 125.109 25.907C125.611 27.0477 125.863 28.4397 125.863 30.083C125.863 32.7703 125.186 34.81 123.833 36.202C122.499 37.594 120.72 38.29 118.497 38.29C117.994 38.29 117.482 38.2513 116.96 38.174C116.438 38.0967 115.896 37.9903 115.336 37.855V42.901L118.004 43.423V44.67H110.754ZM118.236 36.55C119.937 36.55 121.232 36.0087 122.122 34.926C123.011 33.824 123.456 32.287 123.456 30.315C123.456 28.401 123.059 26.9027 122.267 25.82C121.493 24.7373 120.517 24.196 119.338 24.196C118.719 24.196 118.062 24.3507 117.366 24.66C116.689 24.9693 116.012 25.443 115.336 26.081V36.086C116.38 36.3953 117.346 36.55 118.236 36.55ZM149.257 36.753V38H142.384V36.753L144.675 36.26V24.457L142.384 23.993V22.775L149.257 22.601V23.819L146.995 24.341V36.26L149.257 36.753ZM128.348 38V36.753L130.61 36.26V24.457L128.348 23.993V22.775L135.54 22.601V23.819L132.93 24.37V28.343H136.091C137.831 28.343 139.165 28.7393 140.093 29.532C141.021 30.3247 141.485 31.4943 141.485 33.041C141.485 34.607 140.963 35.825 139.919 36.695C138.875 37.565 137.183 38 134.844 38H128.348ZM135.54 29.967H132.93V36.376H134.844C136.313 36.376 137.386 36.1053 138.063 35.564C138.74 35.0033 139.078 34.1817 139.078 33.099C139.078 31.011 137.899 29.967 135.54 29.967Z" fill="white"/>
<rect width="194" height="57" rx="28.5" fill="#DBDBDB" fill-opacity="0.55"/>
</svg>
