<svg width="241" height="39" viewBox="0 0 241 39" fill="none" xmlns="http://www.w3.org/2000/svg">
<rect x="0.5" y="0.5" width="240" height="38" rx="17.5" fill="#610000" fill-opacity="0.8" stroke="#610000"/>
<path d="M57.7746 23.946V25H53.4226V23.946L54.5276 23.623L58.4716 13.1L60.5966 13.032L64.3196 23.623L65.4076 23.946V25H60.6816V23.946L61.9736 23.606L61.3956 21.736H57.0946L56.4316 23.623L57.7746 23.946ZM57.5536 20.274H60.9706L59.3726 14.97L57.5536 20.274ZM69.0493 15.956H70.4943C71.5936 15.956 72.455 16.1203 73.0783 16.449C73.7016 16.7663 74.0133 17.3387 74.0133 18.166C74.0133 18.778 73.832 19.2427 73.4693 19.56C73.1066 19.8773 72.591 20.0983 71.9223 20.223C72.659 20.3137 73.254 20.5347 73.7073 20.886C74.1606 21.2373 74.3873 21.7813 74.3873 22.518C74.3873 23.368 74.053 23.997 73.3843 24.405C72.7156 24.8017 71.707 25 70.3583 25H65.8023V23.946L67.0093 23.623V17.367L65.8023 17.061V16.007L69.0493 15.956ZM70.0693 17.299H69.0493V19.764H69.7803C70.551 19.764 71.1063 19.662 71.4463 19.458C71.7863 19.254 71.9563 18.9253 71.9563 18.472C71.9563 18.03 71.8033 17.724 71.4973 17.554C71.1913 17.384 70.7153 17.299 70.0693 17.299ZM70.1033 23.623C70.8513 23.623 71.3953 23.5267 71.7353 23.334C72.0866 23.13 72.2623 22.773 72.2623 22.263C72.2623 21.7983 72.115 21.447 71.8203 21.209C71.5256 20.9597 71.061 20.835 70.4263 20.835H69.0493V23.623H70.1033ZM76.6296 25V23.946L78.0746 23.64V17.469H76.3066L76.0176 18.931H74.7596V15.956H83.4296V18.931H82.1886L81.8996 17.469H80.1146V23.64L81.5936 23.946V25H76.6296ZM88.369 15.769C89.6723 15.769 90.6923 16.1657 91.429 16.959C92.1657 17.7523 92.534 18.8687 92.534 20.308C92.534 21.3167 92.3527 22.1837 91.99 22.909C91.6387 23.6343 91.1287 24.1953 90.46 24.592C89.8027 24.9887 89.0093 25.187 88.08 25.187C86.7767 25.187 85.7623 24.796 85.037 24.014C84.323 23.232 83.966 22.11 83.966 20.648C83.966 19.1407 84.3513 17.9507 85.122 17.078C85.904 16.2053 86.9863 15.769 88.369 15.769ZM88.267 17.231C86.8163 17.231 86.091 18.336 86.091 20.546C86.091 21.634 86.2667 22.4387 86.618 22.96C86.9693 23.47 87.4907 23.725 88.182 23.725C88.93 23.725 89.491 23.4417 89.865 22.875C90.239 22.3083 90.426 21.4867 90.426 20.41C90.426 18.2907 89.7063 17.231 88.267 17.231ZM93.5229 28.91V27.856L94.7299 27.499V17.384L93.5229 17.061V16.007L96.3109 15.871L96.4979 17.061C96.9966 16.6303 97.4839 16.3073 97.9599 16.092C98.4473 15.8767 98.9403 15.769 99.4389 15.769C100.085 15.769 100.657 15.9447 101.156 16.296C101.666 16.636 102.063 17.146 102.346 17.826C102.641 18.4947 102.788 19.3107 102.788 20.274C102.788 21.906 102.38 23.1357 101.564 23.963C100.759 24.779 99.6939 25.187 98.3679 25.187C97.8806 25.187 97.3479 25.1247 96.7699 25V27.516L98.1809 27.856V28.91H93.5229ZM98.1129 23.725C98.9743 23.725 99.6146 23.436 100.034 22.858C100.453 22.28 100.663 21.4867 100.663 20.478C100.663 19.492 100.482 18.7157 100.119 18.149C99.7563 17.571 99.2689 17.282 98.6569 17.282C98.0563 17.282 97.4273 17.5653 96.7699 18.132V23.538C97.2573 23.6627 97.7049 23.725 98.1129 23.725ZM103.953 25V23.946L105.143 23.606V17.401L103.953 17.061V16.007L108.22 15.888V16.942L107.098 17.316V21.498L111.127 17.673V17.35L109.988 17.061V16.007L114.272 15.888V16.942L113.065 17.316V23.606L114.272 23.946V25H109.988V23.946L111.127 23.64V19.322L107.098 23.266V23.657L108.22 23.946V25H103.953ZM118.384 25.187C117.84 25.187 117.296 25.1247 116.752 25C116.22 24.8867 115.727 24.711 115.273 24.473L115.681 23.181C116.089 23.385 116.509 23.5437 116.939 23.657C117.381 23.759 117.812 23.81 118.231 23.81C118.798 23.81 119.291 23.6967 119.71 23.47C120.13 23.232 120.339 22.8523 120.339 22.331C120.339 21.923 120.186 21.5887 119.88 21.328C119.574 21.0673 119.047 20.937 118.299 20.937H117.16V19.713H118.265C118.945 19.713 119.438 19.5997 119.744 19.373C120.062 19.135 120.22 18.8007 120.22 18.37C120.22 17.9053 120.062 17.5767 119.744 17.384C119.427 17.1913 119.019 17.095 118.52 17.095C118.294 17.095 118.056 17.1177 117.806 17.163C117.557 17.197 117.302 17.2423 117.041 17.299L116.854 18.472H115.579L115.494 16.296C116.061 16.1373 116.628 16.0127 117.194 15.922C117.761 15.82 118.311 15.769 118.843 15.769C119.489 15.769 120.067 15.8483 120.577 16.007C121.099 16.1657 121.507 16.415 121.801 16.755C122.107 17.095 122.26 17.537 122.26 18.081C122.26 19.237 121.563 19.9567 120.169 20.24C120.963 20.3647 121.541 20.614 121.903 20.988C122.277 21.362 122.464 21.838 122.464 22.416C122.464 23.0507 122.272 23.572 121.886 23.98C121.501 24.388 120.997 24.694 120.373 24.898C119.75 25.0907 119.087 25.187 118.384 25.187ZM128.163 15.769C129.466 15.769 130.486 16.1657 131.223 16.959C131.96 17.7523 132.328 18.8687 132.328 20.308C132.328 21.3167 132.147 22.1837 131.784 22.909C131.433 23.6343 130.923 24.1953 130.254 24.592C129.597 24.9887 128.803 25.187 127.874 25.187C126.571 25.187 125.556 24.796 124.831 24.014C124.117 23.232 123.76 22.11 123.76 20.648C123.76 19.1407 124.145 17.9507 124.916 17.078C125.698 16.2053 126.78 15.769 128.163 15.769ZM128.061 17.231C126.61 17.231 125.885 18.336 125.885 20.546C125.885 21.634 126.061 22.4387 126.412 22.96C126.763 23.47 127.285 23.725 127.976 23.725C128.724 23.725 129.285 23.4417 129.659 22.875C130.033 22.3083 130.22 21.4867 130.22 20.41C130.22 18.2907 129.5 17.231 128.061 17.231ZM136.734 15.956H138.179C139.278 15.956 140.14 16.1203 140.763 16.449C141.386 16.7663 141.698 17.3387 141.698 18.166C141.698 18.778 141.517 19.2427 141.154 19.56C140.791 19.8773 140.276 20.0983 139.607 20.223C140.344 20.3137 140.939 20.5347 141.392 20.886C141.845 21.2373 142.072 21.7813 142.072 22.518C142.072 23.368 141.738 23.997 141.069 24.405C140.4 24.8017 139.392 25 138.043 25H133.487V23.946L134.694 23.623V17.367L133.487 17.061V16.007L136.734 15.956ZM137.754 17.299H136.734V19.764H137.465C138.236 19.764 138.791 19.662 139.131 19.458C139.471 19.254 139.641 18.9253 139.641 18.472C139.641 18.03 139.488 17.724 139.182 17.554C138.876 17.384 138.4 17.299 137.754 17.299ZM137.788 23.623C138.536 23.623 139.08 23.5267 139.42 23.334C139.771 23.13 139.947 22.773 139.947 22.263C139.947 21.7983 139.8 21.447 139.505 21.209C139.21 20.9597 138.746 20.835 138.111 20.835H136.734V23.623H137.788ZM149.131 25.119L148.876 23.674C148.422 24.184 147.929 24.5637 147.397 24.813C146.864 25.0623 146.343 25.187 145.833 25.187C145.13 25.187 144.541 24.966 144.065 24.524C143.6 24.0707 143.368 23.4133 143.368 22.552C143.368 21.5773 143.674 20.903 144.286 20.529C144.909 20.1437 145.77 19.951 146.87 19.951H148.672V18.846C148.672 18.2907 148.53 17.894 148.247 17.656C147.963 17.4067 147.561 17.282 147.04 17.282C146.586 17.282 146.071 17.367 145.493 17.537L145.306 18.795H143.997L143.861 16.415C145.334 15.9843 146.575 15.769 147.584 15.769C148.581 15.769 149.352 15.99 149.896 16.432C150.44 16.8627 150.712 17.5427 150.712 18.472V23.589L151.919 23.929V24.983L149.131 25.119ZM145.425 22.365C145.425 22.8297 145.532 23.1697 145.748 23.385C145.963 23.589 146.241 23.691 146.581 23.691C146.887 23.691 147.221 23.6003 147.584 23.419C147.958 23.2377 148.32 22.9827 148.672 22.654V21.124H147.193C146.524 21.124 146.059 21.226 145.799 21.43C145.549 21.634 145.425 21.9457 145.425 22.365ZM153.628 25V23.946L155.073 23.64V17.469H153.305L153.016 18.931H151.758V15.956H160.428V18.931H159.187L158.898 17.469H157.113V23.64L158.592 23.946V25H153.628ZM161.062 25V23.946L162.252 23.623V17.367L161.062 17.061V16.007L165.72 15.888V16.942L164.292 17.282V19.084H165.907C166.972 19.084 167.794 19.322 168.372 19.798C168.961 20.274 169.256 20.9993 169.256 21.974C169.256 22.9373 168.933 23.6853 168.287 24.218C167.641 24.7393 166.604 25 165.176 25H161.062ZM165.448 20.461H164.292V23.623H165.142C165.867 23.623 166.389 23.4927 166.706 23.232C167.035 22.96 167.199 22.552 167.199 22.008C167.199 20.9767 166.615 20.461 165.448 20.461ZM174.041 25.187C173.27 25.187 172.579 25.0057 171.967 24.643C171.355 24.2803 170.873 23.7533 170.522 23.062C170.171 22.3707 169.995 21.5377 169.995 20.563C169.995 19.6903 170.12 18.9537 170.369 18.353C170.618 17.741 170.953 17.248 171.372 16.874C171.803 16.4887 172.284 16.211 172.817 16.041C173.361 15.8597 173.916 15.769 174.483 15.769C174.993 15.769 175.52 15.837 176.064 15.973C176.608 16.109 177.061 16.2677 177.424 16.449L177.356 18.812H176.03L175.809 17.435C175.605 17.367 175.384 17.316 175.146 17.282C174.919 17.248 174.71 17.231 174.517 17.231C173.724 17.231 173.123 17.5257 172.715 18.115C172.318 18.693 172.12 19.4693 172.12 20.444C172.12 21.498 172.335 22.3027 172.766 22.858C173.208 23.402 173.786 23.674 174.5 23.674C175.259 23.674 176.109 23.3623 177.05 22.739L177.73 23.793C177.118 24.269 176.5 24.6203 175.877 24.847C175.254 25.0737 174.642 25.187 174.041 25.187ZM178.103 25V23.946L179.242 23.657L179.854 22.246C179.967 21.9513 180.126 21.7247 180.33 21.566C180.545 21.396 180.8 21.2827 181.095 21.226C179.769 20.9653 179.106 20.1493 179.106 18.778C179.106 17.8713 179.395 17.1743 179.973 16.687C180.551 16.1997 181.378 15.956 182.455 15.956H187.096V17.01L185.889 17.35V23.623L187.096 23.946V25H182.744V23.946L183.849 23.657V21.566H183.016C182.665 21.566 182.381 21.6397 182.166 21.787C181.951 21.9343 181.775 22.1893 181.639 22.552L180.738 25H178.103ZM182.914 20.325H183.849V17.282H182.727C182.251 17.282 181.86 17.3953 181.554 17.622C181.259 17.8487 181.112 18.234 181.112 18.778C181.112 19.356 181.259 19.7583 181.554 19.985C181.86 20.2117 182.313 20.325 182.914 20.325Z" fill="white" fill-opacity="0.78"/>
</svg>
