<svg width="194" height="57" viewBox="0 0 194 57" fill="none" xmlns="http://www.w3.org/2000/svg">
<path d="M45.7835 38V36.753L48.2775 36.231L54.3095 27.589L49.3795 19.527L47.0015 19.063V17.816L53.9615 17.845V19.121L51.6705 19.469L55.9625 26.777H58.8915V19.556L56.4265 19.15V17.903L63.4445 17.758V19.005L61.1245 19.556V26.777H63.8795L68.2585 19.498L65.8805 19.15V17.903L72.8695 17.758V19.005L70.4045 19.556L65.5325 27.473L71.7095 36.231L74.0875 36.753V38H66.8085V36.753L69.0705 36.231L63.7635 28.43H61.1245V36.202L63.4445 36.753V38H56.5135V36.753L58.8915 36.231V28.43H56.1075L50.8005 36.231L53.0335 36.753V38H45.7835ZM84.6895 38.145L84.3705 35.622C83.5392 36.492 82.6402 37.1493 81.6735 37.594C80.7262 38.0387 79.8078 38.261 78.9185 38.261C77.7972 38.261 76.8498 37.9033 76.0765 37.188C75.3032 36.4533 74.9165 35.361 74.9165 33.911C74.9165 32.809 75.1485 31.9487 75.6125 31.33C76.0958 30.692 76.7628 30.2473 77.6135 29.996C78.4642 29.7447 79.4598 29.619 80.6005 29.619H84.1385V27.154C84.1385 26.11 83.8582 25.356 83.2975 24.892C82.7368 24.428 81.9635 24.196 80.9775 24.196C80.0108 24.196 78.9378 24.3893 77.7585 24.776L77.5265 27.125H75.9605L75.7285 23.529C76.8305 23.1617 77.8648 22.891 78.8315 22.717C79.7982 22.5237 80.6972 22.427 81.5285 22.427C83.0558 22.427 84.2545 22.775 85.1245 23.471C86.0138 24.1477 86.4585 25.24 86.4585 26.748V36.26L88.7495 36.695V37.971L84.6895 38.145ZM77.2655 33.737C77.2655 34.6843 77.4878 35.3803 77.9325 35.825C78.3965 36.2697 78.9765 36.492 79.6725 36.492C80.3298 36.492 81.0548 36.2987 81.8475 35.912C82.6402 35.5253 83.4038 34.9937 84.1385 34.317V31.156H80.9485C79.5758 31.156 78.6188 31.3687 78.0775 31.794C77.5362 32.2 77.2655 32.8477 77.2655 33.737ZM90.3982 38V36.753L92.6602 36.231V24.486L90.3982 23.993V22.775L97.1842 22.601V23.819L94.9802 24.399V29.126H102.839V24.428L100.635 23.993V22.775L107.45 22.601V23.819L105.159 24.399V36.231L107.45 36.753V38H100.635V36.753L102.839 36.26V30.866H94.9802V36.26L97.1842 36.753V38H90.3982ZM109.281 44.67V43.423L111.543 42.901V24.515L109.281 24.022V22.775L113.341 22.572L113.602 24.718C115.303 23.1907 116.995 22.427 118.677 22.427C119.76 22.427 120.726 22.7267 121.577 23.326C122.447 23.906 123.133 24.7663 123.636 25.907C124.139 27.0477 124.39 28.4397 124.39 30.083C124.39 32.7703 123.713 34.81 122.36 36.202C121.026 37.594 119.247 38.29 117.024 38.29C116.521 38.29 116.009 38.2513 115.487 38.174C114.965 38.0967 114.424 37.9903 113.863 37.855V42.901L116.531 43.423V44.67H109.281ZM116.763 36.55C118.464 36.55 119.76 36.0087 120.649 34.926C121.538 33.824 121.983 32.287 121.983 30.315C121.983 28.401 121.587 26.9027 120.794 25.82C120.021 24.7373 119.044 24.196 117.865 24.196C117.246 24.196 116.589 24.3507 115.893 24.66C115.216 24.9693 114.54 25.443 113.863 26.081V36.086C114.907 36.3953 115.874 36.55 116.763 36.55ZM147.784 36.753V38H140.911V36.753L143.202 36.26V24.457L140.911 23.993V22.775L147.784 22.601V23.819L145.522 24.341V36.26L147.784 36.753ZM126.875 38V36.753L129.137 36.26V24.457L126.875 23.993V22.775L134.067 22.601V23.819L131.457 24.37V28.343H134.618C136.358 28.343 137.692 28.7393 138.62 29.532C139.548 30.3247 140.012 31.4943 140.012 33.041C140.012 34.607 139.49 35.825 138.446 36.695C137.402 37.565 135.711 38 133.371 38H126.875ZM134.067 29.967H131.457V36.376H133.371C134.841 36.376 135.914 36.1053 136.59 35.564C137.267 35.0033 137.605 34.1817 137.605 33.099C137.605 31.011 136.426 29.967 134.067 29.967Z" fill="white"/>
<rect width="194" height="57" rx="28.5" fill="#DBDBDB" fill-opacity="0.55"/>
</svg>
