<svg width="194" height="57" viewBox="0 0 194 57" fill="none" xmlns="http://www.w3.org/2000/svg">
<path d="M33.6949 38V36.753L36.1889 36.231V19.614L33.6949 19.15V17.903L41.0899 17.758V19.005L38.5669 19.585V26.806H49.0649V19.585L46.5709 19.15V17.903L53.9659 17.758V19.005L51.4429 19.585V36.231L53.9659 36.753V38H46.5709V36.753L49.0649 36.231V28.575H38.5669V36.231L41.0899 36.753V38H33.6949ZM63.3995 22.427C65.5069 22.427 67.1695 23.094 68.3875 24.428C69.6055 25.762 70.2145 27.647 70.2145 30.083C70.2145 31.7457 69.9245 33.186 69.3445 34.404C68.7645 35.622 67.9235 36.5693 66.8215 37.246C65.7389 37.9227 64.4339 38.261 62.9065 38.261C60.8185 38.261 59.1849 37.6133 58.0055 36.318C56.8262 35.0033 56.2365 33.1183 56.2365 30.663C56.2365 28.981 56.5169 27.5213 57.0775 26.284C57.6575 25.0467 58.4792 24.0993 59.5425 23.442C60.6252 22.7653 61.9109 22.427 63.3995 22.427ZM63.2835 24.138C61.7949 24.138 60.6542 24.6987 59.8615 25.82C59.0689 26.9413 58.6725 28.517 58.6725 30.547C58.6725 32.5383 59.0495 34.0367 59.8035 35.042C60.5575 36.0473 61.6402 36.55 63.0515 36.55C64.5982 36.55 65.7679 35.9893 66.5605 34.868C67.3725 33.7467 67.7785 32.1903 67.7785 30.199C67.7785 28.227 67.3822 26.7287 66.5895 25.704C65.8162 24.66 64.7142 24.138 63.2835 24.138ZM77.2382 22.688H80.1382C81.9942 22.688 83.4055 22.978 84.3722 23.558C85.3582 24.1187 85.8512 25.0467 85.8512 26.342C85.8512 27.3667 85.5419 28.169 84.9232 28.749C84.3045 29.3097 83.3862 29.6963 82.1682 29.909C83.5215 30.0443 84.5849 30.431 85.3582 31.069C86.1509 31.6877 86.5472 32.6157 86.5472 33.853C86.5472 35.245 86.0059 36.289 84.9232 36.985C83.8599 37.6617 82.1875 38 79.9062 38H72.6562V36.753L74.9182 36.26V24.486L72.6562 24.022V22.775L77.2382 22.688ZM79.6742 24.283H77.2382V29.358H78.9492C80.5925 29.358 81.7622 29.1357 82.4582 28.691C83.1735 28.2463 83.5312 27.5793 83.5312 26.69C83.5312 25.82 83.2122 25.2013 82.5742 24.834C81.9362 24.4667 80.9695 24.283 79.6742 24.283ZM79.6452 36.376C81.2112 36.376 82.3422 36.1633 83.0382 35.738C83.7535 35.3127 84.1112 34.607 84.1112 33.621C84.1112 32.6737 83.7922 31.9487 83.1542 31.446C82.5355 30.9433 81.5592 30.692 80.2252 30.692H77.2382V36.376H79.6452ZM88.7415 38V36.753L91.0035 36.231V24.486L88.7415 23.993V22.775L95.4405 22.601V23.819L93.2365 24.399V33.447L101.298 25.037V24.428L99.0655 23.993V22.775L105.764 22.601V23.819L103.502 24.399V36.231L105.764 36.753V38H99.0655V36.753L101.269 36.26V27.009L93.2365 35.593V36.318L95.4405 36.753V38H88.7415ZM107.914 38V36.753L110.176 36.231V24.486L107.914 23.993V22.775L114.7 22.601V23.819L112.496 24.399V29.126H120.355V24.428L118.151 23.993V22.775L124.966 22.601V23.819L122.675 24.399V36.231L124.966 36.753V38H118.151V36.753L120.355 36.26V30.866H112.496V36.26L114.7 36.753V38H107.914ZM127.087 38V36.753L129.349 36.26V24.428L127.087 23.993V22.775L133.815 22.601V23.819L131.669 24.341V29.155H134.83L137.73 24.312L135.671 24.022V22.775L142.051 22.572V23.819L139.963 24.225L136.657 29.706L140.659 36.318L142.863 36.753V38H139.18L134.917 30.779H131.669V36.231L134.163 36.753V38H127.087ZM143.626 38V36.753L145.888 36.231V24.486L143.626 23.993V22.775L150.325 22.601V23.819L148.121 24.399V33.447L156.183 25.037V24.428L153.95 23.993V22.775L160.649 22.601V23.819L158.387 24.399V36.231L160.649 36.753V38H153.95V36.753L156.154 36.26V27.009L148.121 35.593V36.318L150.325 36.753V38H143.626Z" fill="white"/>
<rect width="194" height="57" rx="28.5" fill="#DBDBDB" fill-opacity="0.55"/>
</svg>
