<svg width="194" height="57" viewBox="0 0 194 57" fill="none" xmlns="http://www.w3.org/2000/svg">
<path d="M11.3927 38V36.753L13.8867 36.231V19.614L11.3927 19.15V17.903L16.2647 17.758H31.1707V19.005L28.6477 19.585V36.231L31.1707 36.753V38H23.7757V36.753L26.2987 36.231V19.527L16.2647 19.556V36.231L18.7877 36.753V38H11.3927ZM40.6158 22.427C42.7232 22.427 44.3858 23.094 45.6038 24.428C46.8218 25.762 47.4308 27.647 47.4308 30.083C47.4308 31.7457 47.1408 33.186 46.5608 34.404C45.9808 35.622 45.1398 36.5693 44.0378 37.246C42.9552 37.9227 41.6502 38.261 40.1228 38.261C38.0348 38.261 36.4012 37.6133 35.2218 36.318C34.0425 35.0033 33.4528 33.1183 33.4528 30.663C33.4528 28.981 33.7332 27.5213 34.2938 26.284C34.8738 25.0467 35.6955 24.0993 36.7588 23.442C37.8415 22.7653 39.1272 22.427 40.6158 22.427ZM40.4998 24.138C39.0112 24.138 37.8705 24.6987 37.0778 25.82C36.2852 26.9413 35.8888 28.517 35.8888 30.547C35.8888 32.5383 36.2658 34.0367 37.0198 35.042C37.7738 36.0473 38.8565 36.55 40.2678 36.55C41.8145 36.55 42.9842 35.9893 43.7768 34.868C44.5888 33.7467 44.9948 32.1903 44.9948 30.199C44.9948 28.227 44.5985 26.7287 43.8058 25.704C43.0325 24.66 41.9305 24.138 40.4998 24.138ZM49.8435 38V36.753L52.1055 36.231V24.515L49.8435 23.993V22.775L54.2805 22.688H66.7505V23.935L64.4885 24.515V36.231L66.7505 36.753V38H59.9935V36.753L62.1685 36.26V24.457L54.4255 24.428V36.26L56.6005 36.753V38H49.8435ZM68.0668 44.786L68.2698 43.075C68.5018 43.1137 68.7145 43.1427 68.9078 43.162C69.1205 43.1813 69.3138 43.191 69.4878 43.191C70.3965 43.191 71.1312 42.988 71.6918 42.582C72.2718 42.1953 72.7552 41.6057 73.1418 40.813C73.5478 40.0397 73.9442 39.073 74.3308 37.913L69.1108 24.312L67.4578 24.022V22.775L73.8088 22.572V23.848L71.4598 24.254L75.4038 35.506L79.2318 24.312L76.9408 24.022V22.775L83.0888 22.572V23.848L81.4068 24.225L76.3608 38.058C75.8968 39.3533 75.4038 40.5133 74.8818 41.538C74.3598 42.582 73.6928 43.4037 72.8808 44.003C72.0882 44.6217 71.0248 44.931 69.6908 44.931C69.2268 44.931 68.6855 44.8827 68.0668 44.786ZM83.6784 38.232C83.1564 38.232 82.557 38.1353 81.8804 37.942L82.2284 36.057C82.5184 36.115 82.8084 36.144 83.0984 36.144C84.181 36.144 84.9834 35.68 85.5054 34.752C86.0467 33.824 86.4044 32.49 86.5784 30.75C86.7717 28.9907 86.8877 26.8833 86.9264 24.428L84.4034 23.935V22.688H97.9174V23.935L95.6554 24.457V36.26L97.9174 36.753V38H91.0444V36.753L93.3354 36.26V24.457H88.7534C88.7147 27.3377 88.5504 29.8027 88.2604 31.852C87.9897 33.9013 87.487 35.477 86.7524 36.579C86.037 37.681 85.0124 38.232 83.6784 38.232ZM99.2724 38V36.753L101.447 36.289L102.694 33.331C102.926 32.7897 103.216 32.374 103.564 32.084C103.912 31.794 104.328 31.591 104.811 31.475C103.651 31.2817 102.752 30.8467 102.114 30.17C101.496 29.4933 101.186 28.5363 101.186 27.299C101.186 25.733 101.679 24.573 102.665 23.819C103.671 23.065 105.014 22.688 106.696 22.688H113.946V23.935L111.684 24.457V36.26L113.946 36.753V38H107.189V36.753L109.364 36.289V31.881H107.479C106.803 31.881 106.242 32.026 105.797 32.316C105.353 32.5867 104.995 33.0797 104.724 33.795L103.071 38H99.2724ZM107.392 30.402H109.364V24.254H106.928C105.923 24.254 105.092 24.486 104.434 24.95C103.796 25.3947 103.477 26.1777 103.477 27.299C103.477 28.4397 103.796 29.242 104.434 29.706C105.072 30.17 106.058 30.402 107.392 30.402ZM115.795 44.67V43.423L118.057 42.901V24.515L115.795 24.022V22.775L119.855 22.572L120.116 24.718C121.817 23.1907 123.509 22.427 125.191 22.427C126.273 22.427 127.24 22.7267 128.091 23.326C128.961 23.906 129.647 24.7663 130.15 25.907C130.652 27.0477 130.904 28.4397 130.904 30.083C130.904 32.7703 130.227 34.81 128.874 36.202C127.54 37.594 125.761 38.29 123.538 38.29C123.035 38.29 122.523 38.2513 122.001 38.174C121.479 38.0967 120.937 37.9903 120.377 37.855V42.901L123.045 43.423V44.67H115.795ZM123.277 36.55C124.978 36.55 126.273 36.0087 127.163 34.926C128.052 33.824 128.497 32.287 128.497 30.315C128.497 28.401 128.1 26.9027 127.308 25.82C126.534 24.7373 125.558 24.196 124.379 24.196C123.76 24.196 123.103 24.3507 122.407 24.66C121.73 24.9693 121.053 25.443 120.377 26.081V36.086C121.421 36.3953 122.387 36.55 123.277 36.55ZM133.36 38V36.753L135.622 36.231V24.486L133.36 23.993V22.775L140.146 22.601V23.819L137.942 24.399V29.126H145.801V24.428L143.597 23.993V22.775L150.412 22.601V23.819L148.121 24.399V36.231L150.412 36.753V38H143.597V36.753L145.801 36.26V30.866H137.942V36.26L140.146 36.753V38H133.36ZM159.986 22.427C162.093 22.427 163.756 23.094 164.974 24.428C166.192 25.762 166.801 27.647 166.801 30.083C166.801 31.7457 166.511 33.186 165.931 34.404C165.351 35.622 164.51 36.5693 163.408 37.246C162.325 37.9227 161.02 38.261 159.493 38.261C157.405 38.261 155.771 37.6133 154.592 36.318C153.413 35.0033 152.823 33.1183 152.823 30.663C152.823 28.981 153.103 27.5213 153.664 26.284C154.244 25.0467 155.066 24.0993 156.129 23.442C157.212 22.7653 158.497 22.427 159.986 22.427ZM159.87 24.138C158.381 24.138 157.241 24.6987 156.448 25.82C155.655 26.9413 155.259 28.517 155.259 30.547C155.259 32.5383 155.636 34.0367 156.39 35.042C157.144 36.0473 158.227 36.55 159.638 36.55C161.185 36.55 162.354 35.9893 163.147 34.868C163.959 33.7467 164.365 32.1903 164.365 30.199C164.365 28.227 163.969 26.7287 163.176 25.704C162.403 24.66 161.301 24.138 159.87 24.138ZM176.145 38.261C174.849 38.261 173.699 37.971 172.694 37.391C171.708 36.7917 170.934 35.9217 170.374 34.781C169.813 33.6403 169.533 32.2387 169.533 30.576C169.533 28.9133 169.823 27.473 170.403 26.255C170.983 25.037 171.795 24.0993 172.839 23.442C173.902 22.7653 175.159 22.427 176.609 22.427C177.962 22.427 179.074 22.717 179.944 23.297C180.833 23.8577 181.49 24.6407 181.916 25.646C182.36 26.6513 182.583 27.8017 182.583 29.097C182.583 29.3097 182.573 29.532 182.554 29.764C182.534 29.9767 182.515 30.228 182.496 30.518H171.94C171.978 32.3353 172.404 33.7853 173.216 34.868C174.028 35.9313 175.188 36.463 176.696 36.463C177.411 36.463 178.194 36.3277 179.045 36.057C179.895 35.767 180.775 35.332 181.684 34.752L182.525 36.057C181.442 36.811 180.359 37.3717 179.277 37.739C178.194 38.087 177.15 38.261 176.145 38.261ZM176.435 24.196C175.159 24.196 174.144 24.631 173.39 25.501C172.655 26.3517 172.201 27.473 172.027 28.865H180.176C180.195 28.0337 180.079 27.27 179.828 26.574C179.576 25.8587 179.17 25.2883 178.61 24.863C178.068 24.4183 177.343 24.196 176.435 24.196Z" fill="white"/>
<rect width="194" height="57" rx="28.5" fill="#DBDBDB" fill-opacity="0.55"/>
</svg>
